<?xml version="1.0" encoding="utf-8"?>
<svg viewBox="0 0 500 500" xmlns="http://www.w3.org/2000/svg">
  <path style="stroke: rgb(0, 0, 0); fill: rgb(0, 120, 215);" d="M 50.654 163.408 L 50.654 103.854 L 51.871 99.804 L 54.307 97.374 L 57.149 95.753 L 60.397 94.943 L 111.142 95.348 L 118.855 66.994 L 178.531 67.399 L 185.026 94.538 L 238.207 94.538 L 241.049 95.348 L 243.485 97.778 L 245.109 100.209 L 246.326 103.854 L 246.732 163.399 L 50.654 163.408 Z M 121.697 94.943 L 175.283 94.949 L 170.818 76.715 L 126.162 76.714 L 121.697 94.943 Z"/>
  <path style="stroke: rgb(0, 0, 0); fill: rgb(0, 120, 215);" d="M 247.141 174.837 L 210.376 174.428 L 209.559 190.359 L 189.542 190.359 L 189.542 174.837 L 108.252 174.837 L 108.252 190.359 L 87.01 189.951 L 87.418 173.612 L 50.245 173.611 L 50.654 218.546 L 51.471 221.405 L 52.696 223.856 L 54.739 225.899 L 57.19 227.124 L 237.745 226.716 L 241.422 225.899 L 243.873 223.856 L 246.324 220.588 L 247.141 174.837 Z"/>
  <text style="fill: rgb(255, 255, 255); font-family: Arial, sans-serif; font-size: 35px; font-weight: 700; white-space: pre;" x="113.154" y="142.565">MVP</text>
</svg>